<?xml version="1.0" standalone="no"?>
<!DOCTYPE svg PUBLIC "-//W3C//DTD SVG 20010904//EN"
 "http://www.w3.org/TR/2001/REC-SVG-20010904/DTD/svg10.dtd">
<svg version="1.0" xmlns="http://www.w3.org/2000/svg"
 width="256.000000pt" height="256.000000pt" viewBox="0 0 256.000000 256.000000"
 preserveAspectRatio="xMidYMid meet">
<metadata>
Created by potrace 1.11, written by Peter Selinger 2001-2013
</metadata>
<g transform="translate(0.000000,256.000000) scale(0.100000,-0.100000)"
fill="#000000" stroke="none">
<path d="M1140 2553 c-272 -29 -541 -156 -744 -352 -109 -105 -187 -209 -249
-328 -364 -705 -18 -1557 734 -1807 456 -152 962 -31 1301 311 106 107 171
193 232 312 258 499 165 1101 -231 1493 -107 106 -193 171 -312 232 -219 113
-491 165 -731 139z m169 -457 c29 -8 55 -16 57 -18 1 -2 -8 -46 -21 -98 -14
-52 -25 -102 -25 -111 0 -18 87 -46 100 -32 4 4 18 51 30 103 12 52 26 99 30
103 6 7 128 -18 138 -28 2 -1 -9 -48 -23 -103 -14 -55 -25 -107 -25 -114 1 -7
35 -29 78 -48 145 -65 214 -163 198 -279 -13 -97 -56 -164 -125 -195 l-40 -18
59 -57 c59 -57 80 -100 80 -166 0 -82 -61 -220 -115 -261 -17 -13 -53 -33 -81
-45 -48 -22 -111 -25 -293 -16 l-35 2 -18 -75 c-11 -41 -23 -91 -29 -111 l-9
-37 -63 16 c-34 8 -65 18 -69 21 -4 3 4 49 17 101 33 127 33 126 -19 139 -25
6 -49 11 -54 11 -4 0 -19 -45 -32 -100 -13 -55 -27 -105 -30 -111 -6 -8 -22
-8 -63 1 -86 20 -83 14 -52 139 15 62 26 113 24 115 -2 2 -56 16 -119 31 -63
15 -125 32 -137 36 l-22 8 35 79 36 79 64 -16 c62 -14 65 -14 83 5 19 19 176
628 173 669 -2 31 -43 60 -106 74 -52 12 -57 15 -52 34 3 12 11 46 17 75 8 32
18 52 26 52 8 0 70 -14 139 -32 95 -24 127 -29 133 -20 4 7 18 57 31 112 26
111 23 108 109 86z"/>
<path d="M1241 1555 c-17 -68 -31 -131 -31 -138 0 -16 137 -47 208 -47 96 0
157 57 149 138 -6 51 -33 84 -98 117 -44 23 -151 55 -182 55 -10 0 -23 -35
-46 -125z"/>
<path d="M1165 1249 c-2 -8 -20 -76 -39 -152 -24 -97 -31 -140 -23 -142 52
-18 151 -37 215 -42 130 -10 204 37 206 131 1 53 -22 89 -82 127 -46 29 -161
70 -235 84 -27 5 -38 4 -42 -6z"/>
</g>
</svg>
